<svg enable-background="new 0 128.25 612 535.5" height="535.5" viewBox="0 128.25 612 535.5" width="612" xmlns="http://www.w3.org/2000/svg"><title>Close Button</title><path d="m554.625 128.25h-497.25c-31.676 0-57.375 25.699-57.375 57.375v420.75c0 31.676 25.699 57.375 57.375 57.375h497.25c31.676 0 57.375-25.699 57.375-57.375v-420.75c0-31.676-25.699-57.375-57.375-57.375zm0 470.953c0 3.944-3.228 7.172-7.172 7.172h-482.906c-3.944 0-7.172-3.228-7.172-7.172v-406.406c0-3.944 3.228-7.172 7.172-7.172h482.906c3.944 0 7.172 3.228 7.172 7.172zm-128.496-276.595-73.393 73.392 73.393 73.393c5.498 5.498 5.498 14.463 0 20.081l-26.655 26.655c-5.499 5.498-14.464 5.498-20.081 0l-73.393-73.393-73.392 73.393c-5.499 5.498-14.463 5.498-20.082 0l-26.655-26.655c-5.499-5.499-5.499-14.464 0-20.081l73.392-73.393-73.392-73.392c-5.499-5.499-5.499-14.463 0-20.082l26.655-26.655c5.499-5.499 14.463-5.499 20.082 0l73.392 73.392 73.393-73.392c5.498-5.499 14.463-5.499 20.081 0l26.655 26.655c5.618 5.499 5.618 14.464 0 20.082z" fill="#fff" stroke="#000" stroke-miterlimit="10"/></svg>